<svg xmlns="http://www.w3.org/2000/svg" viewBox="18.6 78.8 558.4 558.9" enable-background="new 18.6 78.8 558.4 558.9"><path fill="#fff" d="M18.6 637.2v-78.8c0-34.2 21.6-65.3 54-76.6l143.7-39.6v-42.3c-41.4-31.1-68.9-85.1-68.9-146.4 0-96.4 67.5-174.7 150.9-174.7s150.9 78.4 150.9 174.7c0 61.7-27.9 116.2-69.8 147.3v41.9l142.8 39.2c33.3 11.7 54.9 42.8 54.9 77v78.8h-558.5v-.5zm279.7-535.4c-50.9 0-95.5 36-115.7 87.4 14.4 7.7 46.8 18 78.4 12.6 23.4-4.1 40.1-15.8 50-35.6l9.9-19.4 10.8 18.9c13.1 22.5 43.7 42.3 67.5 43.2 8.6.5 15.3-1.8 19.8-6.3-18.1-58.5-64.9-100.8-120.7-100.8zm127.8 151.3c0-9-.9-17.6-1.8-26.1-6.8 3.6-14.9 5.4-23.9 5.4h-2.3c-26.1-.9-56.7-17.6-76.1-40.1-13.5 17.1-32.9 28.4-56.7 32.4-32 5.4-67.5-2.7-89.2-13.1-3.2 13.1-5 27-5 41.4 0 83.3 57.2 151.3 127.4 151.3s127.6-67.9 127.6-151.2zm127.9 305.3c0-24.3-15.3-46.4-38.7-54.9l-159-43.7v-45.5c-18 8.6-37.4 13.5-57.6 13.5-20.7 0-40.5-5-58.5-14v45.9l-159.9 44.2c-22.1 8.1-37.8 30.2-37.8 54.5v55.4h512v-55.4h-.5z"/></svg>