<svg xmlns="http://www.w3.org/2000/svg" width="100" height="125"><path fill-rule="evenodd" fill="#e74c3c" d="M4 0h71l25 25v96c0 2.209-1.791 4-4 4h-92c-2.209 0-4-1.791-4-4v-117c0-2.209 1.791-4 4-4z"/><path fill-rule="evenodd" fill="#c0392b" d="M100 25h-21c-2.209 0-4-1.791-4-4v-21l25 25"/><path fill-rule="evenodd" fill="#fff" d="M64.611 78.608v-7.002l20.039-8.233-20.039-9.287v-7.031l29.092 14.531v4.19l-29.092 12.832zm-26.953 5.947l15.967-42.832h8.115l-15.967 42.832h-8.115zm-32.08-22.969l29.092-14.531v7.031l-20.039 9.287 20.039 8.233v7.002l-29.092-12.832v-4.19z"/></svg>