<svg xmlns="http://www.w3.org/2000/svg" width="100" height="125"><path fill-rule="evenodd" fill="#1abc9c" d="M4 0h71l25 25v96c0 2.209-1.791 4-4 4h-92c-2.209 0-4-1.791-4-4v-117c0-2.209 1.791-4 4-4z"/><path fill-rule="evenodd" fill="#16a085" d="M100 25h-21c-2.209 0-4-1.791-4-4v-21l25 25"/><path fill-rule="evenodd" fill="#fff" d="M83.531 79.334h-1.156v-15.167c0-4.503-3.631-8.167-8.094-8.167h-19.656v-9.333h1.156c1.908 0 3.469-1.575 3.469-3.5v-11.667c0-1.925-1.561-3.5-3.469-3.5h-11.562c-1.908 0-3.469 1.575-3.469 3.5v11.667c0 1.925 1.561 3.5 3.469 3.5h1.156v9.333h-19.656c-4.463 0-8.094 3.664-8.094 8.167v15.167h-1.156c-1.908 0-3.469 1.575-3.469 3.5v11.666c0 1.925 1.561 3.5 3.469 3.5h11.562c1.908 0 3.469-1.575 3.469-3.5v-11.666c0-1.925-1.561-3.5-3.469-3.5h-1.156v-14h18.5v14h-1.156c-1.908 0-3.469 1.575-3.469 3.5v11.666c0 1.925 1.561 3.5 3.469 3.5h11.562c1.908 0 3.469-1.575 3.469-3.5v-11.666c0-1.925-1.561-3.5-3.469-3.5h-1.156v-14h18.5v14h-1.156c-1.908 0-3.469 1.575-3.469 3.5v11.666c0 1.925 1.561 3.5 3.469 3.5h11.562c1.908 0 3.469-1.575 3.469-3.5v-11.666c0-1.925-1.561-3.5-3.469-3.5zm-56.656 14h-9.25v-9.334h9.25v9.334zm27.75 0h-9.25v-9.334h9.25v9.334zm-9.25-51.334v-9.333h9.25v9.333h-9.25zm37 51.334h-9.25v-9.334h9.25v9.334z"/></svg>