<svg xmlns="http://www.w3.org/2000/svg" width="19" height="16" viewBox="0 0 19 16">
  <defs>
    <style>
      .cls-1 {
        fill: #e74c3c;
        fill-rule: evenodd;
      }
    </style>
  </defs>
  <path id="google_plus" data-name="google plus" class="cls-1" d="M299.373,671.008H294.4c-2.229,0-4.327,1.681-4.327,3.629a3.587,3.587,0,0,0,3.787,3.6c0.158,0,.311,0,0.461-0.014a2.012,2.012,0,0,0-.252.924,1.915,1.915,0,0,0,.677,1.368c-0.286,0-.562.008-0.863,0.008-2.76,0-4.885,1.751-4.885,3.567,0,1.788,2.329,2.907,5.09,2.907,3.148,0,4.886-1.779,4.886-3.567a3.451,3.451,0,0,0-1.739-3.218,3.225,3.225,0,0,1-1.309-1.539c0-.53.152-0.792,0.955-1.416a3.319,3.319,0,0,0,1.4-2.585,2.945,2.945,0,0,0-1.6-2.859h1.577Zm-1.736,12.109a2.239,2.239,0,0,1,.061.511c0,1.445-.935,2.574-3.618,2.574-1.908,0-3.286-1.2-3.286-2.648,0-1.416,1.709-2.6,3.617-2.574a4.153,4.153,0,0,1,1.237.2C296.684,681.9,297.427,682.3,297.637,683.117Zm-3.055-5.388c-1.281-.039-2.5-1.427-2.72-3.1s0.638-2.957,1.919-2.919,2.5,1.382,2.719,3.057S295.862,677.767,294.582,677.729Zm9.856-3.174v-3.547H303.25v3.547h-3.562v1.182h3.562v3.548h1.188v-3.548H308v-1.182h-3.562Z" transform="translate(-289 -671)"/>
</svg>
