<svg xmlns="http://www.w3.org/2000/svg" viewBox="13 171.3 569.2 71.6" enable-background="new 13 171.3 569.2 71.6"><path fill="#E74C3C" d="M237.9 242.9v-7h120v7h-120"/><path fill="#fff" d="M578.3 183.9c-2.9-2.5-6.2-3.8-10-3.8-3.6 0-6.4 1.2-8.6 3.7-2.2 2.4-3.3 5.6-3.3 9.5 0 4.1 1.2 7.4 3.5 9.8 2.3 2.4 5.4 3.6 9.3 3.6 3 0 5.9-.6 8.5-1.8 1.5-.7 3-1.7 4.6-3.1l-.8 11c-4.1 2.3-8.5 3.5-13.2 3.5-3.4 0-6.4-.5-8.9-1.5-4-1.6-7.2-4.3-9.6-8.2-2.4-3.9-3.6-8.2-3.6-12.9 0-6.4 2.1-11.8 6.2-16.1 4.1-4.3 9.3-6.4 15.4-6.4 2.1 0 4.1.2 6 .7 2.4.6 4.9 1.6 7.6 3.1l-.8 10.8c-.9-.7-1.6-1.3-2.3-1.9zm-63.9 32.5c-5.9 0-10.9-2.2-14.9-6.5s-6.1-9.7-6.1-16.1 2-11.7 6.1-16c4-4.3 9-6.5 14.9-6.5s10.9 2.2 14.9 6.5 6.1 9.7 6.1 16-2 11.7-6.1 16.1-9 6.5-14.9 6.5zm7.7-32c-2-2.4-4.5-3.6-7.7-3.6s-5.8 1.2-7.7 3.6c-2 2.4-2.9 5.5-2.9 9.4 0 3.9 1 7 2.9 9.4 2 2.4 4.5 3.6 7.7 3.6s5.8-1.2 7.7-3.6c2-2.4 2.9-5.5 2.9-9.4.1-3.9-.9-7-2.9-9.4zm-65.4-11.7h24.8v8.6h-14.8v7.8h12.3v8.6h-12.2v8.5h14.8v8.6h-24.8v-42.1zm-26 42.2h-10.1v-34h-13.5v-8.3h37.1v8.3h-13.5v34zm-37.6-6.2h-17.6l-2.6 6.2h-10l21.4-43.7h.8l21.1 43.7h-10.5l-2.6-6.2zm-8.8-20.8l-5.8 13.7h11.6l-5.8-13.7zm-42.1 7.6l-11.5 20.9h-.6l-12.3-21.3-3.7 19.9h-9l8.8-43.7h.6l16.1 27.9 15.1-27.9h.8l8.8 43.7h-9.3l-3.8-19.5zm-85.6 20.9c-3.4 0-7.1-.6-11.2-1.9l-.8-11.3c1.9 1.2 3.5 2.1 4.9 2.8 2.2 1 4.5 1.6 6.8 1.6 1.9 0 3.5-.4 4.6-1.1 1.1-.8 1.7-1.8 1.7-3.1 0-1-.4-2-1.2-2.9-.8-.9-2.7-2.2-5.7-3.8-3.8-2-6.4-3.8-8-5.4-2.2-2.2-3.3-4.9-3.3-8.3 0-3.4 1.2-6.2 3.8-8.4s5.7-3.2 9.7-3.2c3 0 6.7.7 11.3 2.1v9.9c-4.2-2.7-7.9-4.1-11.1-4.1-2.8 0-4.3 1.2-4.3 3.5 0 1.1.6 2 1.7 2.9.7.6 2.3 1.5 4.8 2.8 4.5 2.3 7.6 4.5 9.4 6.7 1.8 2.1 2.7 4.7 2.7 7.7 0 4.2-1.4 7.5-4.3 10-3 2.2-6.8 3.5-11.5 3.5zm-43.8 0c-5.8 0-10.3-1.7-13.4-5-3.1-3.4-4.6-8.2-4.6-14.6v-24h10.1v23.9c0 7.3 2.9 10.9 8.6 10.9 5.7 0 8.6-3.6 8.6-10.9v-23.9h8.8v24c0 6.4-1.5 11.3-4.6 14.6-3.2 3.3-7.6 5-13.5 5zm-43.8-43.7h10.1v42.2h-10.1v-42.2zm-21.2 42.2l-11.5-16.7h-1.4v16.7h-9.7v-42.2h11.6c5.4 0 9.6 1.1 12.6 3.3 3 2.2 4.5 5.3 4.5 9.3 0 4.9-2.6 8.7-7.8 11.3l13.2 18.2h-11.5zm-4.7-33.3c-1.4-.9-3.7-1.4-6.9-1.4h-1.3v13c3.6 0 6.2-.6 7.8-1.8s2.4-2.9 2.4-5.3c.1-2.1-.6-3.6-2-4.5zm-42 27.1h-17.6l-2.6 6.2h-10l21.4-43.7h.8l21.1 43.7h-10.5l-2.6-6.2zm-8.9-20.8l-5.8 13.7h11.6l-5.8-13.7zm-42.1 7.6l-11.5 20.9h-.6l-12.3-21.3-3.7 19.8h-9l8.8-43.7h.6l16.1 27.9 15.1-27.9h.8l8.8 43.7h-9.2l-3.9-19.4z"/></svg>