<svg xmlns="http://www.w3.org/2000/svg" width="100" height="125"><path fill-rule="evenodd" fill="#3498db" d="M4 0h71l25 25v96c0 2.209-1.791 4-4 4h-92c-2.209 0-4-1.791-4-4v-117c0-2.209 1.791-4 4-4z"/><path fill-rule="evenodd" fill="#2980b9" d="M100 25h-21c-2.209 0-4-1.791-4-4v-21l25 25"/><path fill-rule="evenodd" fill="#fff" d="M74.482 56.711c-1.711-.539-3.457-.809-5.238-.809-3.164 0-4.746.856-4.746 2.567 0 .961.509 1.793 1.529 2.496 1.019.703 3.252 1.746 6.697 3.129 3.07 1.242 5.32 2.402 6.75 3.48 1.43 1.079 2.484 2.321 3.164 3.727.68 1.406 1.02 3.082 1.02 5.027 0 4.032-1.401 7.102-4.201 9.211-2.801 2.109-6.991 3.164-12.569 3.164-2.859 0-5.297-.193-7.312-.58-2.016-.387-3.903-.955-5.66-1.705v-8.859c1.991.937 4.236 1.722 6.732 2.355 2.496.633 4.693.949 6.592.949 3.89 0 5.836-1.125 5.836-3.375 0-.843-.258-1.529-.774-2.056-.515-.528-1.406-1.125-2.672-1.793-1.265-.668-2.953-1.447-5.062-2.338-3.023-1.266-5.244-2.437-6.662-3.516-1.418-1.078-2.45-2.314-3.094-3.709-.645-1.394-.967-3.111-.967-5.15 0-3.492 1.354-6.193 4.061-8.104 2.707-1.91 6.544-2.865 11.514-2.865 4.734 0 9.339 1.032 13.816 3.094l-3.234 7.734c-1.969-.844-3.809-1.535-5.52-2.074zm-43.439 13.008h-4.676v18.281h-10.898v-51.398h16.418c6.234 0 10.974 1.342 14.22 4.025 3.246 2.684 4.87 6.686 4.87 12.006 0 5.531-1.729 9.762-5.186 12.691-3.457 2.93-8.373 4.395-14.748 4.395zm6.838-22.36c-1.395-1.218-3.581-1.828-6.557-1.828h-4.957v15.258h3.586c3.352 0 5.859-.662 7.524-1.986 1.663-1.324 2.496-3.252 2.496-5.783 0-2.555-.698-4.442-2.092-5.661z"/></svg>