<svg xmlns="http://www.w3.org/2000/svg" width="229" height="19"><path fill-rule="evenodd" fill="#fff" d="M226.726 5.694c-1.152-1.008-2.48-1.512-3.984-1.512-1.424 0-2.576.488-3.456 1.464-.88.976-1.32 2.248-1.32 3.816 0 1.648.46 2.956 1.38 3.924.92.968 2.156 1.452 3.708 1.452 1.216 0 2.352-.24 3.408-.72.608-.272 1.216-.688 1.824-1.248l-.336 4.416c-1.632.927-3.392 1.392-5.28 1.392-1.376 0-2.56-.201-3.552-.6-1.584-.64-2.86-1.732-3.828-3.276-.968-1.544-1.452-3.26-1.452-5.148 0-2.576.824-4.724 2.472-6.444 1.648-1.72 3.704-2.58 6.168-2.58.848 0 1.648.096 2.4.288.944.24 1.952.656 3.024 1.248l-.336 4.32c-.304-.304-.584-.568-.84-.792zm-25.584 12.984c-2.368 0-4.36-.868-5.976-2.604-1.616-1.736-2.424-3.876-2.424-6.42s.808-4.684 2.424-6.42c1.616-1.736 3.608-2.604 5.976-2.604s4.36.868 5.976 2.604c1.616 1.736 2.424 3.876 2.424 6.42s-.808 4.684-2.424 6.42c-1.616 1.736-3.608 2.604-5.976 2.604zm3.096-12.78c-.784-.952-1.816-1.428-3.096-1.428s-2.312.476-3.096 1.428c-.784.952-1.176 2.204-1.176 3.756 0 1.552.392 2.804 1.176 3.756.784.952 1.816 1.428 3.096 1.428s2.312-.476 3.096-1.428c.784-.952 1.176-2.204 1.176-3.756 0-1.552-.392-2.804-1.176-3.756zm-26.183-4.692h9.935v3.456h-5.903v3.12h4.895v3.456h-4.895v3.408h5.903v3.456h-9.935v-16.896zm-10.392 16.896h-4.032v-13.584h-5.4v-3.312h14.832v3.312h-5.4v13.584zm-15.024-2.496h-7.032l-1.056 2.496h-3.984l8.568-17.472h.336l8.424 17.472h-4.2l-1.056-2.496zm-3.528-8.304l-2.304 5.472h4.632l-2.328-5.472zm-16.848 3.024l-4.608 8.352h-.24l-4.92-8.52-1.464 7.944h-3.6l3.528-17.472h.24l6.456 11.16 6.048-11.16h.336l3.528 17.472h-3.768l-1.536-7.776zm-34.248 8.352c-1.344 0-2.832-.257-4.464-.768l-.336-4.512c.752.48 1.4.848 1.944 1.104.88.416 1.784.624 2.712.624.768 0 1.38-.152 1.836-.456.456-.304.684-.712.684-1.224 0-.416-.164-.804-.492-1.164-.328-.36-1.092-.868-2.292-1.524-1.504-.816-2.568-1.536-3.192-2.16-.88-.864-1.32-1.968-1.32-3.312 0-1.376.5-2.496 1.5-3.36 1-.864 2.292-1.296 3.876-1.296 1.184 0 2.688.28 4.512.84v3.96c-1.68-1.088-3.16-1.632-4.44-1.632-1.136 0-1.704.464-1.704 1.392 0 .432.224.816.672 1.152.288.224.928.592 1.92 1.104 1.792.928 3.048 1.82 3.768 2.676.72.856 1.08 1.876 1.08 3.06 0 1.664-.568 2.996-1.704 3.996-1.136.999-2.656 1.5-4.56 1.5zm-17.496 0c-2.336 0-4.12-.672-5.352-2.016-1.232-1.344-1.848-3.296-1.848-5.856v-9.6h4.032v9.552c0 2.912 1.144 4.368 3.432 4.368 2.288 0 3.432-1.456 3.432-4.368v-9.552h3.504v9.6c0 2.56-.616 4.512-1.848 5.856-1.232 1.344-3.016 2.016-5.352 2.016zm-17.544-17.472h4.032v16.896h-4.032v-16.896zm-8.472 16.896l-4.608-6.672h-.552v6.672h-3.888v-16.896h4.632c2.16 0 3.844.444 5.052 1.332 1.208.888 1.812 2.132 1.812 3.732 0 1.968-1.04 3.48-3.12 4.536l5.28 7.296h-4.608zm-1.872-13.332c-.544-.36-1.464-.54-2.76-.54h-.528v5.184c1.44-.016 2.484-.252 3.132-.708.648-.456.972-1.164.972-2.124 0-.848-.272-1.452-.816-1.812zm-16.823 10.836h-7.032l-1.056 2.496h-3.984l8.568-17.472h.336l8.424 17.472h-4.2l-1.056-2.496zm-3.528-8.304l-2.304 5.472h4.632l-2.328-5.472zm-16.848 3.024l-4.608 8.352h-.24l-4.92-8.52-1.464 7.944h-3.6l3.528-17.472h.24l6.456 11.16 6.048-11.16h.336l3.528 17.472h-3.768l-1.536-7.776z"/></svg>