<svg xmlns="http://www.w3.org/2000/svg" width="100" height="125"><path fill-rule="evenodd" fill="#2ecc71" d="M4 0h71l25 25v96c0 2.209-1.791 4-4 4h-92c-2.209 0-4-1.791-4-4v-117c0-2.209 1.791-4 4-4z"/><path fill-rule="evenodd" fill="#27ae60" d="M100 25h-21c-2.209 0-4-1.791-4-4v-21l25 25"/><path fill-rule="evenodd" fill="#fff" d="M76.25 85.5v-8.75c0-.638-.216-1.162-.649-1.572-.433-.41-.946-.615-1.538-.615h-6.426c-.41-.775-.866-1.527-1.367-2.256l3.144-5.469c.274-.501.342-1.048.205-1.641-.137-.592-.478-1.048-1.025-1.367l-11.211-6.562c-.547-.274-1.105-.331-1.675-.171-.57.159-1.014.49-1.333.991l-3.144 5.606-.547-.034c-.274-.023-.49-.035-.65-.035-.159 0-.387.012-.683.035l-.581.034-3.145-5.606c-.319-.501-.763-.832-1.333-.991-.57-.16-1.128-.103-1.675.171l-11.211 6.562c-.547.319-.888.775-1.025 1.367-.137.593-.068 1.14.205 1.641l3.144 5.469c-.501.729-.934 1.481-1.298 2.256h-6.495c-.592 0-1.105.205-1.538.615-.432.41-.649.934-.649 1.572v8.75c-2.415 0-4.477-.854-6.186-2.563-1.709-1.709-2.564-3.771-2.564-6.187v-26.25c0-1.23.422-2.267 1.265-3.11s1.88-1.265 3.11-1.265h32.813l3.144-5.81c.319-.821.957-1.516 1.914-2.085.957-.57 1.96-.855 3.008-.855h16.406c1.094 0 2.119.285 3.076.855.957.569 1.595 1.264 1.914 2.085l3.35 5.81v30.625c0 2.416-.855 4.478-2.563 6.187-1.709 1.709-3.771 2.563-6.187 2.563zm-58.105-49.56c.319-.821.957-1.516 1.914-2.085.957-.57 1.959-.855 3.007-.855h16.407c1.093 0 2.119.285 3.076.855.957.569 1.618 1.264 1.982 2.085l3.282 5.81h-32.813l3.145-5.81zm12.168 42.998h7.382c.547-1.595 1.413-3.054 2.598-4.375l-3.145-5.674c-.319-.501-.398-1.037-.239-1.606.16-.57.49-1.015.991-1.334l3.555-2.119c.501-.273 1.026-.33 1.572-.17.547.159.957.489 1.231.991l3.281 5.742c.912-.137 1.732-.205 2.461-.205.775 0 1.595.068 2.461.205l3.281-5.742c.274-.502.684-.832 1.231-.991.547-.16 1.071-.103 1.572.17l3.623 2.119c.456.319.763.764.923 1.334.159.569.102 1.105-.171 1.606l-3.213 5.674c1.185 1.321 2.051 2.78 2.598 4.375h7.383c.592 0 1.105.205 1.538.615.433.41.649.934.649 1.572v4.375c0 .593-.216 1.105-.649 1.538-.433.433-.946.65-1.538.65h-7.383c-.547 1.549-1.413 2.985-2.598 4.306l3.213 5.674c.273.547.33 1.094.171 1.641-.16.547-.467.98-.923 1.299l-3.623 2.119c-.501.273-1.025.342-1.572.205-.547-.137-.957-.479-1.231-1.025l-3.281-5.743c-.866.182-1.675.274-2.427.274s-1.583-.092-2.495-.274l-3.281 5.743c-.274.546-.684.888-1.231 1.025-.546.137-1.071.068-1.572-.205l-3.555-2.119c-.501-.319-.831-.752-.991-1.299-.159-.547-.08-1.094.239-1.641l3.145-5.674c-1.185-1.321-2.051-2.757-2.598-4.306h-7.382c-.593 0-1.106-.217-1.539-.65-.432-.433-.649-.945-.649-1.538v-4.375c0-.638.217-1.162.649-1.572.433-.41.946-.615 1.539-.615zm19.721 8.75c1.208 0 2.233-.433 3.076-1.299.843-.866 1.265-1.903 1.265-3.11 0-1.208-.422-2.234-1.265-3.077s-1.868-1.264-3.076-1.264c-1.207 0-2.244.421-3.11 1.264-.866.843-1.299 1.869-1.299 3.077 0 1.207.433 2.244 1.299 3.11.866.866 1.903 1.299 3.11 1.299z"/></svg>