<svg xmlns="http://www.w3.org/2000/svg" viewBox="7.8 181 573.7 578"><path fill="#fff" d="M449.7 759H7.8V229.1h346.3c6.5 0 12.1 5.6 12.1 12.1s-5.1 12.1-12.1 12.1H31.6v481.5h393.8V470c0-6.5 5.1-12.1 12.1-12.1 6.5 0 12.1 5.6 12.1 12.1v289zM266.5 510.6c-3.3 0-6.1-1.4-8.4-3.7-3.7-3.7-4.7-9.3-2.3-14l33.6-68c.5-.9 1.4-2.3 2.3-3.3l227.9-229.8c7-7 15.8-10.7 25.2-10.7 14.4 0 28 9.3 34 23.3 5.6 13.5 2.3 28-8.4 38.7L342.5 472.8c-.9.9-1.9 1.9-3.3 2.3l-67.6 34c-1.8 1-3.2 1.5-5.1 1.5zm43.3-73.2l-16.8 34 33.6-17.2 226.5-228.4c3.7-3.7 4.7-7.9 2.8-12.1-1.9-5.1-7-8.4-11.7-8.4-2.8 0-5.6 1.4-7.9 3.7L309.8 437.4zM528 280.8c-3.3 0-6.1-1.4-8.4-3.7L486 243c-4.7-4.7-4.7-12.1 0-17.2 4.7-4.7 12.1-4.7 16.8 0l33.6 34c4.7 4.7 4.7 12.1 0 17.2-2.4 2.4-5.2 3.8-8.4 3.8zM63.7 334.9v-23.3h233v23.3h-233zm0 83.9v-23.3h55.9v23.3H63.7zm37.3 0v-23.3h102.5v23.3H101zm-37.3 88.5V484h181.8v23.3H63.7z"/></svg>