<svg xmlns="http://www.w3.org/2000/svg" width="100" height="125"><path fill-rule="evenodd" fill="#e74c3c" d="M4 0h71l25 25v96a4 4 0 0 1-4 4H4a4 4 0 0 1-4-4V4a4 4 0 0 1 4-4z"/><path fill-rule="evenodd" fill="#c0392b" d="M100 25H79a4 4 0 0 1-4-4V0l25 25"/><path fill-rule="evenodd" fill="#fff" d="M64.611 78.608v-7.002l20.039-8.233-20.039-9.287v-7.031l29.092 14.531v4.19L64.611 78.608zm-26.953 5.947l15.967-42.832h8.115L45.773 84.555h-8.115zM5.578 61.586L34.67 47.055v7.031l-20.039 9.287 20.039 8.233v7.002L5.578 65.776v-4.19z"/></svg>