<svg xmlns="http://www.w3.org/2000/svg" width="100" height="125"><path fill-rule="evenodd" fill="#1abc9c" d="M4 0h71l25 25v96a4 4 0 0 1-4 4H4a4 4 0 0 1-4-4V4a4 4 0 0 1 4-4z"/><path fill-rule="evenodd" fill="#16a085" d="M100 25H79a4 4 0 0 1-4-4V0l25 25"/><path fill-rule="evenodd" fill="#fff" d="M83.531 79.334h-1.156V64.167c0-4.503-3.631-8.167-8.094-8.167H54.625v-9.333h1.156c1.908 0 3.469-1.575 3.469-3.5V31.5c0-1.925-1.561-3.5-3.469-3.5H44.219c-1.908 0-3.469 1.575-3.469 3.5v11.667c0 1.925 1.561 3.5 3.469 3.5h1.156V56H25.719c-4.463 0-8.094 3.664-8.094 8.167v15.167h-1.156c-1.908 0-3.469 1.575-3.469 3.5V94.5c0 1.925 1.561 3.5 3.469 3.5h11.562c1.908 0 3.469-1.575 3.469-3.5V82.834c0-1.925-1.561-3.5-3.469-3.5h-1.156v-14h18.5v14h-1.156c-1.908 0-3.469 1.575-3.469 3.5V94.5c0 1.925 1.561 3.5 3.469 3.5h11.562c1.908 0 3.469-1.575 3.469-3.5V82.834c0-1.925-1.561-3.5-3.469-3.5h-1.156v-14h18.5v14h-1.156c-1.908 0-3.469 1.575-3.469 3.5V94.5c0 1.925 1.561 3.5 3.469 3.5h11.562C85.439 98 87 96.425 87 94.5V82.834c0-1.925-1.561-3.5-3.469-3.5zm-56.656 14h-9.25V84h9.25v9.334zm27.75 0h-9.25V84h9.25v9.334zM45.375 42v-9.333h9.25V42h-9.25zm37 51.334h-9.25V84h9.25v9.334z"/></svg>