<svg xmlns="http://www.w3.org/2000/svg" width="100" height="125"><path fill-rule="evenodd" fill="#f1c40f" d="M4 0h71l25 25v96a4 4 0 0 1-4 4H4a4 4 0 0 1-4-4V4a4 4 0 0 1 4-4z"/><path fill-rule="evenodd" fill="#f39c12" d="M100 25H79a4 4 0 0 1-4-4V0l25 25"/><path fill-rule="evenodd" fill="#fff" d="M52.507 47.142a18.71 18.71 0 0 0-2.363-.133c-.933 0-1.775.033-2.709.133-.8.067-1.433.767-1.433 1.601v26.664c0 .867.7 1.6 1.6 1.6h4.772c.867 0 1.6-.733 1.6-1.6V48.743a1.6 1.6 0 0 0-1.467-1.601zm-10.986 7.906c-.933-.1-1.617-.133-2.55-.133-.934 0-1.588.033-2.522.133-.8.067-1.433.767-1.433 1.601v18.758c0 .867.7 1.6 1.6 1.6h4.772c.867 0 1.6-.733 1.6-1.6V56.649a1.6 1.6 0 0 0-1.467-1.601zm22.035 7.093c-.934-.1-1.555-.133-2.489-.133-.933 0-1.712.033-2.646.133-.8.067-1.434.767-1.434 1.601v11.665c0 .867.7 1.6 1.601 1.6h4.834c.867 0 1.601-.733 1.601-1.6V63.742a1.6 1.6 0 0 0-1.467-1.601zm13.923-3.402c-.733-4.199-2.369-8.081-4.908-11.645l6.739-6.738c4.296 5.468 6.86 11.596 7.69 18.383h-9.521zM54.261 35.522V26c6.787.83 12.915 3.394 18.384 7.691l-6.739 6.738c-3.564-2.539-7.446-4.175-11.645-4.907zm-27.905-1.831C31.824 29.394 37.952 26.83 44.739 26v9.522c-4.199.732-8.081 2.368-11.645 4.907l-6.738-6.738zm.073 13.403c-2.539 3.564-4.175 7.446-4.907 11.645H12c.83-6.787 3.394-12.915 7.69-18.383l6.739 6.738zm0 32.812l-6.739 6.739c-4.296-5.469-6.86-11.597-7.69-18.384h9.522c.732 4.199 2.368 8.081 4.907 11.645zm18.31 11.573V101c-6.787-.83-12.915-3.394-18.383-7.69l6.738-6.739c3.564 2.54 7.446 4.175 11.645 4.908zm27.906 1.831c-5.469 4.296-11.597 6.86-18.384 7.69v-9.521c4.199-.733 8.081-2.368 11.645-4.908l6.739 6.739zm4.834-25.049H87c-.83 6.787-3.394 12.915-7.69 18.384l-6.739-6.739c2.539-3.564 4.175-7.446 4.908-11.645z"/></svg>