<svg xmlns="http://www.w3.org/2000/svg" width="19" height="16" viewBox="0 0 19 16"><defs><style>.cls-1{fill:#e74c3c;fill-rule:evenodd}</style></defs><path id="twitter.svg" class="cls-1" d="M274 671.893a7.588 7.588 0 0 1-2.239.636 4.039 4.039 0 0 0 1.715-2.235 7.677 7.677 0 0 1-2.476.98 3.832 3.832 0 0 0-2.846-1.274 3.971 3.971 0 0 0-3.9 4.04 4.159 4.159 0 0 0 .1.921 10.944 10.944 0 0 1-8.035-4.222 4.142 4.142 0 0 0-.528 2.032 4.081 4.081 0 0 0 1.735 3.363 3.789 3.789 0 0 1-1.766-.5v.051a4.009 4.009 0 0 0 3.127 3.961 3.751 3.751 0 0 1-1.027.142 3.87 3.87 0 0 1-.734-.072 3.925 3.925 0 0 0 3.642 2.805 7.657 7.657 0 0 1-5.768 1.666 10.753 10.753 0 0 0 5.975 1.813c7.17 0 11.091-6.156 11.091-11.5 0-.176 0-.35-.012-.523a8.081 8.081 0 0 0 1.946-2.084z" transform="translate(-255 -670)"/></svg>