<svg xmlns="http://www.w3.org/2000/svg" viewBox="215.4 265.9 123 124"><style>.st0{fill:#fff}</style><path class="st0" d="M313.2 316.6c-2.8 0-5.5-.4-8-1.3l-18.4 18.6 14.7 14.9 3.9-4 5.9-6c1.1-1.1 2.9-1.1 4 0s1.1 2.9 0 4l-4 4 23.7 23.9c2.1 2.1 3.3 5 3.3 8s-1.2 5.8-3.3 8c-2.1 2.1-4.9 3.3-7.9 3.3s-5.8-1.2-7.9-3.3l-23.7-23.9-4 4c-.5.5-1.3.8-2 .8s-1.4-.3-2-.8c-1.1-1.1-1.1-2.9 0-4l5.9-6 4-4-14.7-14.9-18.4 18.6c3.1 9.1.8 19.1-6 26-4.7 4.8-11.1 7.4-17.8 7.4-3.4 0-6.7-.7-9.8-2-.9-.4-1.5-1.1-1.7-2.1-.2-.9.1-1.9.8-2.5l9.9-10v-8h-7.9l-9.9 10c-.7.7-1.6 1-2.5.8-.9-.2-1.7-.8-2-1.7-4-9.6-1.9-20.5 5.4-27.8 4.7-4.8 11.1-7.4 17.8-7.4 2.8 0 5.5.4 8 1.3l18.4-18.6-29.1-29.3-2 2c-.5.6-1.3.8-2 .8s-1.4-.3-2-.8l-15.8-15.9c-.5-.5-.8-1.2-.8-2s.3-1.5.8-2l7.9-8c1.1-1.1 2.9-1.1 4 0l15.8 15.9c.5.5.8 1.2.8 2s-.3 1.5-.8 2l-2 2 29.1 29.3 18.4-18.6c-3.1-9.1-.8-19.1 6-26 4.7-4.8 11.1-7.4 17.8-7.4 3.4 0 6.7.7 9.8 2 .9.4 1.5 1.1 1.7 2.1.2.9-.1 1.9-.8 2.5l-9.9 10v8h7.9l9.9-10c.7-.7 1.6-1 2.5-.8.9.2 1.7.8 2 1.7 4 9.6 1.9 20.5-5.4 27.8-4.5 4.8-10.9 7.4-17.6 7.4zm10 66c2.1 2.1 5.8 2.1 7.9 0 1.1-1.1 1.6-2.5 1.6-4s-.6-2.9-1.6-4l-23.7-23.9-7.9 8 23.7 23.9zm-97.1-109.9l-4 4 11.9 12 4-4-11.9-12zm106.4 15.1l-7.4 7.5c-.5.5-1.2.8-2 .8h-11.9c-1.5 0-2.8-1.3-2.8-2.8v-12c0-.8.3-1.5.8-2l7.4-7.5c-1.1-.2-2.3-.3-3.5-.3-5.2 0-10.1 2-13.8 5.8-5.7 5.7-7.3 14.2-4.2 21.6.4 1.1.2 2.3-.6 3.1l-43.4 43.7c-.8.8-2 1.1-3.1.6-2.4-1-5-1.6-7.7-1.6-5.2 0-10.1 2-13.8 5.8-4.6 4.6-6.6 11.1-5.4 17.4l7.4-7.5c.5-.5 1.2-.8 2-.8h11.9c1.5 0 2.8 1.3 2.8 2.8v12c0 .7-.3 1.5-.8 2l-7.4 7.5c1.1.2 2.3.3 3.5.3 5.2 0 10.1-2 13.8-5.8 5.7-5.7 7.3-14.2 4.2-21.6-.4-1.1-.2-2.3.6-3.1l43.4-43.7c.8-.8 2-1.1 3.1-.6 2.4 1 5 1.6 7.7 1.6 5.2 0 10.1-2 13.8-5.8 4.6-4.7 6.5-11.2 5.4-17.4z"/></svg>