<svg xmlns="http://www.w3.org/2000/svg" width="100" height="125"><path fill-rule="evenodd" fill="#2ecc71" d="M4 0h71l25 25v96a4 4 0 0 1-4 4H4a4 4 0 0 1-4-4V4a4 4 0 0 1 4-4z"/><path fill-rule="evenodd" fill="#27ae60" d="M100 25H79a4 4 0 0 1-4-4V0l25 25"/><path fill-rule="evenodd" fill="#fff" d="M76.25 85.5v-8.75c0-.638-.216-1.162-.649-1.572a2.162 2.162 0 0 0-1.538-.615h-6.426a22.833 22.833 0 0 0-1.367-2.256l3.144-5.469c.274-.501.342-1.048.205-1.641-.137-.592-.478-1.048-1.025-1.367l-11.211-6.562a2.258 2.258 0 0 0-1.675-.171c-.57.159-1.014.49-1.333.991l-3.144 5.606-.547-.034a8.245 8.245 0 0 0-.65-.035c-.159 0-.387.012-.683.035l-.581.034-3.145-5.606a2.247 2.247 0 0 0-1.333-.991 2.258 2.258 0 0 0-1.675.171L31.406 63.83c-.547.319-.888.775-1.025 1.367-.137.593-.068 1.14.205 1.641l3.144 5.469a15.963 15.963 0 0 0-1.298 2.256h-6.495c-.592 0-1.105.205-1.538.615-.432.41-.649.934-.649 1.572v8.75c-2.415 0-4.477-.854-6.186-2.563C15.855 81.228 15 79.166 15 76.75V50.5c0-1.23.422-2.267 1.265-3.11s1.88-1.265 3.11-1.265h32.813l3.144-5.81c.319-.821.957-1.516 1.914-2.085.957-.57 1.96-.855 3.008-.855H76.66c1.094 0 2.119.285 3.076.855.957.569 1.595 1.264 1.914 2.085l3.35 5.81V76.75c0 2.416-.855 4.478-2.563 6.187-1.709 1.709-3.771 2.563-6.187 2.563zM18.145 35.94c.319-.821.957-1.516 1.914-2.085.957-.57 1.959-.855 3.007-.855h16.407c1.093 0 2.119.285 3.076.855.957.569 1.618 1.264 1.982 2.085l3.282 5.81H15l3.145-5.81zm12.168 42.998h7.382c.547-1.595 1.413-3.054 2.598-4.375l-3.145-5.674a1.91 1.91 0 0 1-.239-1.606c.16-.57.49-1.015.991-1.334l3.555-2.119a1.996 1.996 0 0 1 1.572-.17c.547.159.957.489 1.231.991l3.281 5.742A16.719 16.719 0 0 1 50 70.188c.775 0 1.595.068 2.461.205l3.281-5.742a1.981 1.981 0 0 1 1.231-.991 1.995 1.995 0 0 1 1.572.17l3.623 2.119c.456.319.763.764.923 1.334a2.072 2.072 0 0 1-.171 1.606l-3.213 5.674c1.185 1.321 2.051 2.78 2.598 4.375h7.383c.592 0 1.105.205 1.538.615.433.41.649.934.649 1.572V85.5c0 .593-.216 1.105-.649 1.538-.433.433-.946.65-1.538.65h-7.383c-.547 1.549-1.413 2.985-2.598 4.306l3.213 5.674c.273.547.33 1.094.171 1.641-.16.547-.467.98-.923 1.299l-3.623 2.119a2.108 2.108 0 0 1-1.572.205c-.547-.137-.957-.479-1.231-1.025l-3.281-5.743c-.866.182-1.675.274-2.427.274s-1.583-.092-2.495-.274l-3.281 5.743c-.274.546-.684.888-1.231 1.025a2.109 2.109 0 0 1-1.572-.205l-3.555-2.119a2.25 2.25 0 0 1-.991-1.299c-.159-.547-.08-1.094.239-1.641l3.145-5.674c-1.185-1.321-2.051-2.757-2.598-4.306h-7.382c-.593 0-1.106-.217-1.539-.65-.432-.433-.649-.945-.649-1.538v-4.375c0-.638.217-1.162.649-1.572.433-.41.946-.615 1.539-.615zm19.721 8.75c1.208 0 2.233-.433 3.076-1.299.843-.866 1.265-1.903 1.265-3.11 0-1.208-.422-2.234-1.265-3.077s-1.868-1.264-3.076-1.264c-1.207 0-2.244.421-3.11 1.264-.866.843-1.299 1.869-1.299 3.077 0 1.207.433 2.244 1.299 3.11.866.866 1.903 1.299 3.11 1.299z"/></svg>